<svg width="637" height="326" viewBox="0 0 637 326" fill="none" xmlns="http://www.w3.org/2000/svg">
<path d="M528.484 199.688L543.46 175.112L529.444 152.552H541.348L546.628 161.48C547.332 162.76 548.036 164.072 548.74 165.416C549.444 166.76 550.18 168.104 550.948 169.448H551.332C551.908 168.104 552.516 166.76 553.156 165.416C553.796 164.072 554.404 162.76 554.98 161.48L559.492 152.552H570.916L556.996 176.36L571.972 199.688H560.068L554.308 190.376C553.54 188.968 552.74 187.56 551.908 186.152C551.14 184.744 550.34 183.368 549.508 182.024H549.124C548.42 183.368 547.716 184.744 547.012 186.152C546.308 187.496 545.636 188.904 544.996 190.376L540.004 199.688H528.484Z" fill="#003176"/>
<path d="M499.914 200.839C497.162 200.839 494.73 200.263 492.618 199.111C490.506 197.959 488.842 196.359 487.626 194.311C486.474 192.199 485.898 189.767 485.898 187.015C485.898 181.703 488.106 177.703 492.522 175.015C497.002 172.263 504.074 170.375 513.738 169.351C513.674 167.751 513.354 166.279 512.778 164.935C512.266 163.591 511.37 162.535 510.09 161.767C508.874 160.935 507.21 160.519 505.098 160.519C502.794 160.519 500.522 160.935 498.282 161.767C496.106 162.599 493.962 163.655 491.85 164.935L487.818 157.447C489.546 156.359 491.434 155.367 493.482 154.471C495.53 153.511 497.706 152.775 500.01 152.263C502.314 151.687 504.714 151.399 507.21 151.399C511.114 151.399 514.346 152.199 516.906 153.799C519.53 155.335 521.482 157.639 522.762 160.711C524.106 163.719 524.778 167.431 524.778 171.847V199.687H515.658L514.89 194.503H514.506C512.33 196.295 510.058 197.799 507.69 199.015C505.322 200.231 502.73 200.839 499.914 200.839ZM503.37 191.815C505.29 191.815 507.05 191.431 508.65 190.663C510.314 189.831 512.01 188.615 513.738 187.015V177.031C509.45 177.543 506.058 178.215 503.562 179.047C501.066 179.879 499.274 180.903 498.186 182.119C497.162 183.271 496.65 184.647 496.65 186.247C496.65 188.231 497.29 189.671 498.57 190.567C499.85 191.399 501.45 191.815 503.37 191.815Z" fill="#003176"/>
<path d="M411.422 199.687V152.551H420.542L421.31 158.983H421.694C423.678 156.871 425.822 155.079 428.126 153.607C430.494 152.135 433.15 151.399 436.094 151.399C439.614 151.399 442.398 152.135 444.446 153.607C446.494 155.079 448.062 157.159 449.15 159.847C451.39 157.415 453.726 155.399 456.158 153.799C458.59 152.199 461.31 151.399 464.318 151.399C469.31 151.399 472.99 153.031 475.358 156.295C477.726 159.559 478.91 164.167 478.91 170.119V199.687H467.774V171.559C467.774 167.655 467.198 164.903 466.046 163.303C464.894 161.703 463.07 160.903 460.574 160.903C459.038 160.903 457.47 161.383 455.87 162.343C454.27 163.303 452.542 164.775 450.686 166.759V199.687H439.646V171.559C439.646 167.655 439.038 164.903 437.822 163.303C436.67 161.703 434.846 160.903 432.35 160.903C429.406 160.903 426.11 162.855 422.462 166.759V199.687H411.422Z" fill="#003176"/>
<path d="M379.453 199.687V152.551H388.573L389.341 160.903H389.725C391.389 157.831 393.373 155.495 395.677 153.895C398.045 152.231 400.509 151.399 403.069 151.399C404.285 151.399 405.309 151.463 406.141 151.591C406.973 151.719 407.741 151.975 408.445 152.359L406.237 161.767C405.469 161.575 404.765 161.447 404.125 161.383C403.485 161.255 402.653 161.191 401.629 161.191C399.773 161.191 397.821 161.927 395.773 163.399C393.725 164.807 391.965 167.303 390.493 170.887V199.687H379.453Z" fill="#003176"/>
<path d="M345.219 200.839C342.467 200.839 340.035 200.263 337.923 199.111C335.811 197.959 334.147 196.359 332.931 194.311C331.779 192.199 331.203 189.767 331.203 187.015C331.203 181.703 333.411 177.703 337.827 175.015C342.307 172.263 349.379 170.375 359.043 169.351C358.979 167.751 358.659 166.279 358.083 164.935C357.571 163.591 356.675 162.535 355.395 161.767C354.179 160.935 352.515 160.519 350.403 160.519C348.099 160.519 345.827 160.935 343.587 161.767C341.411 162.599 339.267 163.655 337.155 164.935L333.123 157.447C334.851 156.359 336.739 155.367 338.787 154.471C340.835 153.511 343.011 152.775 345.315 152.263C347.619 151.687 350.019 151.399 352.515 151.399C356.419 151.399 359.651 152.199 362.211 153.799C364.835 155.335 366.787 157.639 368.067 160.711C369.411 163.719 370.083 167.431 370.083 171.847V199.687H360.963L360.195 194.503H359.811C357.635 196.295 355.363 197.799 352.995 199.015C350.627 200.231 348.035 200.839 345.219 200.839ZM348.675 191.815C350.595 191.815 352.355 191.431 353.955 190.663C355.619 189.831 357.315 188.615 359.043 187.015V177.031C354.755 177.543 351.363 178.215 348.867 179.047C346.371 179.879 344.579 180.903 343.491 182.119C342.467 183.271 341.955 184.647 341.955 186.247C341.955 188.231 342.595 189.671 343.875 190.567C345.155 191.399 346.755 191.815 348.675 191.815Z" fill="#003176"/>
<path d="M302.533 199.688L286.117 152.552H297.349L304.837 177.032C305.477 179.272 306.117 181.608 306.757 184.04C307.461 186.408 308.133 188.808 308.773 191.24H309.157C309.861 188.808 310.533 186.408 311.173 184.04C311.877 181.608 312.549 179.272 313.189 177.032L320.677 152.552H331.333L315.301 199.688H302.533Z" fill="#003176"/>
<path d="M256.488 200.84C251.432 200.84 247.752 199.208 245.448 195.944C243.144 192.68 241.992 188.072 241.992 182.12V152.552H253.032V180.68C253.032 184.584 253.608 187.336 254.76 188.936C255.912 190.536 257.768 191.336 260.328 191.336C262.376 191.336 264.168 190.824 265.704 189.8C267.304 188.776 269 187.112 270.792 184.808V152.552H281.832V199.688H272.808L271.944 192.776H271.656C269.608 195.208 267.368 197.16 264.936 198.632C262.504 200.104 259.688 200.84 256.488 200.84Z" fill="#003176"/>
<path d="M213.297 200.84C208.945 200.84 204.817 200.04 200.913 198.44C197.073 196.84 193.649 194.568 190.641 191.624L196.689 184.328C198.929 186.504 201.521 188.2 204.465 189.416C207.473 190.568 210.481 191.144 213.489 191.144C217.073 191.144 219.793 190.408 221.649 188.936C223.505 187.464 224.433 185.512 224.433 183.08C224.433 181.352 224.017 179.976 223.185 178.952C222.353 177.864 221.201 176.936 219.729 176.168C218.321 175.4 216.657 174.632 214.737 173.864L206.097 170.12C204.049 169.224 202.033 168.072 200.049 166.664C198.129 165.192 196.529 163.4 195.249 161.288C194.033 159.112 193.425 156.488 193.425 153.416C193.425 150.088 194.321 147.112 196.113 144.488C197.969 141.8 200.465 139.688 203.601 138.152C206.801 136.552 210.449 135.752 214.545 135.752C218.321 135.752 221.873 136.456 225.201 137.864C228.593 139.208 231.473 141.064 233.841 143.432L227.985 150.728C225.937 149.064 223.793 147.784 221.553 146.888C219.313 145.928 216.977 145.448 214.545 145.448C211.601 145.448 209.201 146.12 207.345 147.464C205.553 148.744 204.657 150.536 204.657 152.84C204.657 154.44 205.105 155.784 206.001 156.872C206.961 157.896 208.209 158.792 209.745 159.56C211.345 160.264 212.977 160.968 214.641 161.672L223.185 165.224C225.681 166.312 227.889 167.592 229.809 169.064C231.729 170.536 233.201 172.328 234.225 174.44C235.313 176.552 235.857 179.144 235.857 182.216C235.857 185.608 234.961 188.712 233.169 191.528C231.377 194.344 228.785 196.616 225.393 198.344C222.065 200.008 218.033 200.84 213.297 200.84Z" fill="#003176"/>
<path d="M114.992 90.752C122.661 100.726 133.308 115.447 142.73 129.865C152.321 144.541 160.604 158.842 163.228 167.505C166.294 177.623 165.726 194.339 158.628 208.514C151.549 222.652 137.982 234.255 114.998 234.255H114.985C111.456 234.255 108.148 233.98 105.052 233.466C115.153 226.335 122.349 219.273 128.109 210.381C134.948 199.825 137.96 177.521 133.035 164.77C129.095 154.568 128.109 144.825 128.109 141.228C126.139 142.699 125.646 143.19 112.841 147.604C100.035 152.018 88.2165 159.375 77.8733 175.559C71.8948 184.914 70.5281 197.734 70.7248 207.211C64.2265 193.326 63.7842 177.315 66.7563 167.505C69.3809 158.842 77.6636 144.541 87.2548 129.865C96.6771 115.447 107.323 100.726 114.992 90.752Z" fill="#077AD7"/>
<path d="M80.9825 185.99C72.2206 206.561 81.4587 222.18 87.173 227.418C89.8387 198.466 107.015 175.99 115.269 168.371C103.079 190.085 98.4439 215.514 97.6503 225.514C108.128 220.276 120.031 208.847 126.222 191.704C131.174 177.99 127.015 158.688 124.317 150.752C119.079 156.466 91.9349 160.276 80.9825 185.99Z" fill="#7ACA2B"/>
</svg>
